# xmcd
#
# Track frame offsets: 
#        150
#        15420
#        28476
#        46234
#        62200
#        78824
#        93573
#        107618
#        120651
#        137284
#        153539
#        170212
#        186671
#        203753
#        231566
#        248655
#        262909
#        283751
#
# Disc length: 4243 seconds
#
# Revision: 0
# Processed by: cddbd v1.5.2PL0 Copyright (c) Steve Scherf et al.
# Submitted via: ExactAudioCopy v1.0b3
#
DISCID=fd109112
DTITLE=Various Artist - Trance The Vocal Session Vol. 12 - CD 2
DYEAR=1900
DGENRE=
TTITLE0=Mario Lopez - Lonely (Original Radio Cut)
TTITLE1=Groove Coverage - 21st Century Digital Girl (Radio Version)
TTITLE2=Tatana Feat. Natalie Brodel - Interview With An Angel (Aly and F
TTITLE2=ila Rmx)
TTITLE3=Untouchable 3 - That Once In A Lifetime (Hi_Track Edit)
TTITLE4=Numa! Feat. Christi - A Long Way (Radio Edit)
TTITLE5=Above and Beyond - Can't Sleep (Radio Edit)
TTITLE6=Dobenbeck Feat. Joanna - Please Don't Go (Radio Mix)
TTITLE7=Freeloader - Come Dance With Me (Radio Mix)
TTITLE8=Mrs. Jane Doe - I Remember (Radio Edit)
TTITLE9=Peter Luts and Domonico - What A Feeling (Radio Edit)
TTITLE10=Scotty Feat. M.C. Sherlock - Insomnia 2006 (No Sleep Trance M
TTITLE10=ix Edit)
TTITLE11=Rodriguez - That's The Way (U Gonna Miss Me)
TTITLE12=Trancedellic - Delicious Dreamer (TJ Mix Edit)
TTITLE13=Matias Lehtola Feat. Gina J - Burning Bright
TTITLE14=Tom Cloud Feat. Tiff Lacey - Secretly (Radio Edit)
TTITLE15=4 Clubbers - Let Me Be Your Fantasy (Xtd Cut)
TTITLE16=Buckley Feat. Carolyn Lugo - Clubbers Dream (Original)
TTITLE17=Airwave Feat. Jon O'Bir - The Promise I Made (Vocal Mix)
EXTD=
EXTT0=
EXTT1=
EXTT2=
EXTT3=
EXTT4=
EXTT5=
EXTT6=
EXTT7=
EXTT8=
EXTT9=
EXTT10=
EXTT11=
EXTT12=
EXTT13=
EXTT14=
EXTT15=
EXTT16=
EXTT17=
PLAYORDER=
